<svg width="53" height="47" viewBox="0 0 53 47" fill="none" xmlns="http://www.w3.org/2000/svg">
<path d="M19.0063 20.7241C19.0063 20.2874 19.1557 19.931 19.4545 19.6552C19.7304 19.3793 20.0293 19.2184 20.3511 19.1724C20.9948 19.1724 21.5005 19.4253 21.8683 19.931L31.8683 35V20.2759C31.8683 19.908 31.9373 19.6552 32.0752 19.5172C32.3281 19.2874 32.5695 19.1724 32.7994 19.1724C33.0522 19.1724 33.2476 19.1954 33.3856 19.2414C33.5235 19.2874 33.6384 19.3563 33.7304 19.4483C33.9833 19.6322 34.0982 19.908 34.0752 20.2759V36.4483C34.0752 37.1379 33.7419 37.6207 33.0752 37.8966C32.9143 37.9655 32.7074 38 32.4545 38C31.9028 38 31.4201 37.7471 31.0063 37.2414L21.2476 22.3793V36.9655C21.2476 37.2874 21.1557 37.5172 20.9718 37.6552C20.6959 37.8851 20.4086 38 20.1097 38C19.8109 38 19.5465 37.9195 19.3166 37.7586C19.1097 37.5747 19.0063 37.3103 19.0063 36.9655V20.7241Z" fill="black"/>
<path d="M10 23H41.5" stroke="black"/>
<path d="M10 30H41.5" stroke="black"/>
</svg>
